{
    "asset": {
        "generator": "COLLADA2GLTF",
        "version": "2.0"
    },
    "scene": 0,
    "scenes": [
        {
            "nodes": [
                0
            ]
        }
    ],
    "nodes": [
        {
            "children": [
                3,
                2,
                1
            ],
            "matrix": [
                0.02539999969303608,
                0.0,
                0.0,
                0.0,
                0.0,
                0.02539999969303608,
                0.0,
                0.0,
                0.0,
                0.0,
                0.02539999969303608,
                0.0,
                0.0,
                0.0,
                0.0,
                1.0
            ]
        },
        {
            "mesh": 0,
            "matrix": [
                1.0,
                0.0,
                0.0,
                0.0,
                0.0,
                0.0,
                -1.0,
                0.0,
                0.0,
                1.0,
                0.0,
                0.0,
                0.0,
                0.0,
                0.0,
                1.0
            ]
        },
        {
            "mesh": 1,
            "matrix": [
                1.0,
                0.0,
                0.0,
                0.0,
                0.0,
                0.0,
                -1.0,
                0.0,
                0.0,
                1.0,
                0.0,
                0.0,
                0.0,
                0.0,
                0.0,
                1.0
            ]
        },
        {
            "mesh": 2,
            "matrix": [
                1.0,
                0.0,
                0.0,
                0.0,
                0.0,
                0.0,
                -1.0,
                0.0,
                0.0,
                1.0,
                0.0,
                0.0,
                0.0,
                0.0,
                0.0,
                1.0
            ]
        }
    ],
    "meshes": [
        {
            "primitives": [
                {
                    "attributes": {
                        "NORMAL": 1,
                        "POSITION": 2
                    },
                    "indices": 0,
                    "mode": 4,
                    "material": 0
                }
            ],
            "name": "AM96_028_003Mesh"
        },
        {
            "primitives": [
                {
                    "attributes": {
                        "NORMAL": 4,
                        "POSITION": 5
                    },
                    "indices": 3,
                    "mode": 4,
                    "material": 1
                }
            ],
            "name": "AM96_028_002Mesh"
        },
        {
            "primitives": [
                {
                    "attributes": {
                        "NORMAL": 7,
                        "POSITION": 8
                    },
                    "indices": 6,
                    "mode": 4,
                    "material": 2
                }
            ],
            "name": "AM96_028_001Mesh"
        }
    ],
    "accessors": [
        {
            "bufferView": 0,
            "byteOffset": 0,
            "componentType": 5123,
            "count": 88719,
            "max": [
                15322
            ],
            "min": [
                0
            ],
            "type": "SCALAR"
        },
        {
            "bufferView": 1,
            "byteOffset": 0,
            "componentType": 5126,
            "count": 15323,
            "max": [
                0.9999819993972778,
                0.9999719858169556,
                0.9998700022697448
            ],
            "min": [
                -0.9999819993972778,
                -0.9998629689216614,
                -0.9999970197677612
            ],
            "type": "VEC3"
        },
        {
            "bufferView": 1,
            "byteOffset": 183876,
            "componentType": 5126,
            "count": 15323,
            "max": [
                2.059263944625855,
                1.050328016281128,
                5.750450134277344
            ],
            "min": [
                -2.059137105941773,
                -1.2772239446640017,
                1.0824010372161866
            ],
            "type": "VEC3"
        },
        {
            "bufferView": 0,
            "byteOffset": 177438,
            "componentType": 5123,
            "count": 14400,
            "max": [
                2484
            ],
            "min": [
                0
            ],
            "type": "SCALAR"
        },
        {
            "bufferView": 1,
            "byteOffset": 367752,
            "componentType": 5126,
            "count": 2485,
            "max": [
                0.9964969754219056,
                0.9996749758720398,
                0.9975579977035524
            ],
            "min": [
                -0.996330976486206,
                -0.9952279925346376,
                -0.9955599904060364
            ],
            "type": "VEC3"
        },
        {
            "bufferView": 1,
            "byteOffset": 397572,
            "componentType": 5126,
            "count": 2485,
            "max": [
                0.1678839921951294,
                -0.8200960159301758,
                5.169475078582764
            ],
            "min": [
                -0.3526619970798493,
                -1.2723530530929566,
                2.0699429512023927
            ],
            "type": "VEC3"
        },
        {
            "bufferView": 0,
            "byteOffset": 206238,
            "componentType": 5123,
            "count": 152847,
            "max": [
                26492
            ],
            "min": [
                0
            ],
            "type": "SCALAR"
        },
        {
            "bufferView": 1,
            "byteOffset": 427392,
            "componentType": 5126,
            "count": 26493,
            "max": [
                0.9998800158500673,
                0.9999970197677612,
                0.9998310208320618
            ],
            "min": [
                -0.9998999834060668,
                -0.9999240040779114,
                -1.0
            ],
            "type": "VEC3"
        },
        {
            "bufferView": 1,
            "byteOffset": 745308,
            "componentType": 5126,
            "count": 26493,
            "max": [
                2.290241003036499,
                1.701799988746643,
                6.433497905731201
            ],
            "min": [
                -2.290241003036499,
                -1.701799988746643,
                0.00019799999427050352
            ],
            "type": "VEC3"
        }
    ],
    "materials": [
        {
            "pbrMetallicRoughness": {
                "baseColorFactor": [
                    0.5,
                    0.5,
                    0.5,
                    1.0
                ],
                "metallicFactor": 0.0
            },
            "emissiveFactor": [
                0.0,
                0.0,
                0.0
            ],
            "name": "AM96_028_003_ncl1_1"
        },
        {
            "pbrMetallicRoughness": {
                "baseColorFactor": [
                    0.5,
                    0.5,
                    0.5,
                    1.0
                ],
                "metallicFactor": 0.0
            },
            "emissiveFactor": [
                0.0,
                0.0,
                0.0
            ],
            "name": "AM96_028_002_ncl1_1"
        },
        {
            "pbrMetallicRoughness": {
                "baseColorFactor": [
                    0.5,
                    0.5,
                    0.5,
                    1.0
                ],
                "metallicFactor": 0.0
            },
            "emissiveFactor": [
                0.0,
                0.0,
                0.0
            ],
            "name": "AM96_028_001_ncl1_1"
        }
    ],
    "bufferViews": [
        {
            "buffer": 0,
            "byteOffset": 1063224,
            "byteLength": 511932,
            "target": 34963
        },
        {
            "buffer": 0,
            "byteOffset": 0,
            "byteLength": 1063224,
            "byteStride": 12,
            "target": 34962
        }
    ],
    "buffers": [
        {
            "byteLength": 1575156,
            "uri": "data:application/octet-stream;base64,"
        }
    ]
}
